<?xml version="1.0" encoding="UTF-8"?>
<svg version="1.1" xmlns="http://www.w3.org/2000/svg" width="194" height="207">
<path d="M0 0 C2.3125 0.8125 2.3125 0.8125 4.3125 2.8125 C4.8125 5.625 4.8125 5.625 4.3125 8.8125 C-5.05419285 17.61915142 -17.30685624 22.39617299 -29.34057617 26.37841797 C-34.46275255 28.12467552 -37.86872334 29.75179749 -40.734375 34.57421875 C-42.68573827 39.91878592 -42.99837112 45.05187821 -43.0625 50.6875 C-43.07635742 51.43733154 -43.09021484 52.18716309 -43.10449219 52.9597168 C-43.08867977 56.99706467 -43.08867977 56.99706467 -41.54296875 60.640625 C-12.85327273 78.76043302 28.46064059 79.26733126 60.41259766 72.35839844 C71.40396875 69.84715139 82.39540309 66.23883605 92.3125 60.8125 C95.75568022 53.92613955 93.56745103 41.84489994 91.359375 34.828125 C88.12622764 28.60310993 82.74517473 27.23964576 76.5 25.0625 C52.57911134 16.34145031 52.57911134 16.34145031 46.3125 8.8125 C45.8125 5.75 45.8125 5.75 46.3125 2.8125 C48 0.875 48 0.875 50.3125 -0.1875 C54.73983533 0.21776558 57.71066514 2.11159584 61.4375 4.4375 C68.62694235 8.76509692 76.15688217 11.53354626 84.0625 14.26953125 C92.04866189 17.07982024 97.46254521 20.78213403 102.3125 27.8125 C105.66917323 35.36173933 105.74054764 42.99506781 105.625 51.125 C105.62822266 52.27806641 105.63144531 53.43113281 105.63476562 54.61914062 C105.57363392 64.20570379 105.57363392 64.20570379 103.3125 68.8125 C93.90869 76.87008036 80.0527745 80.56284388 68.25 83.5625 C67.47221191 83.76109619 66.69442383 83.95969238 65.89306641 84.16430664 C52.49600799 87.39259678 39.33596539 88.1881904 25.625 88.125 C24.78422913 88.12284485 23.94345825 88.1206897 23.07720947 88.11846924 C10.95194891 88.06855442 -0.88130211 87.85000379 -12.6875 84.8125 C-13.49203613 84.60850586 -14.29657227 84.40451172 -15.12548828 84.19433594 C-24.18533668 81.82550022 -33.00134601 78.9049255 -41.625 75.25 C-42.26912842 74.98155273 -42.91325684 74.71310547 -43.5769043 74.43652344 C-47.7861431 72.5562429 -50.69132694 70.30527633 -53.6875 66.8125 C-55.40865512 61.64903464 -54.95691739 56.21793126 -55 50.8125 C-55.02900391 49.63042969 -55.05800781 48.44835937 -55.08789062 47.23046875 C-55.15239098 38.23018787 -53.94437497 29.74415045 -48.375 22.375 C-42.78158742 17.04174614 -37.07988234 15.23900737 -29.81347656 12.95336914 C-21.09159403 10.10923047 -12.65929162 5.93464607 -4.89453125 1.05859375 C-2.6875 -0.1875 -2.6875 -0.1875 0 0 Z " fill="#000000" transform="translate(74.6875,106.1875)"/>
<path d="M0 0 C9.31810115 6.33560286 14.1885441 14.90865978 16.8125 25.71484375 C19.99536142 43.30545787 19.11070039 64.69598345 9.28125 80.1171875 C2.87010703 88.87422597 -4.52458402 93.84168651 -15 96.40234375 C-26.22212436 97.50255202 -37.13043126 96.66088219 -46.625 89.90234375 C-47.84238255 88.87421816 -49.03198965 87.81204853 -50.1875 86.71484375 C-50.99960938 85.94527344 -50.99960938 85.94527344 -51.828125 85.16015625 C-64.20784969 72.09266907 -64.85260029 53.33219849 -64.46875 36.390625 C-63.95329833 23.30889104 -60.587203 12.54355445 -50.875 3.33984375 C-37.09004566 -8.18642719 -15.26685228 -8.96927572 0 0 Z M-47.1875 16.71484375 C-55.10916467 28.75398385 -54.22642718 45.34701369 -51.59350586 58.86425781 C-49.35458919 69.22745593 -45.13024322 76.72364632 -36.1875 82.71484375 C-28.99647789 85.7070153 -20.73884774 86.0778142 -13.265625 83.83984375 C-4.15433942 79.64313039 0.22159824 73.27853445 3.7734375 64.078125 C7.92985388 50.62446146 8.73306857 33.80485082 2.8125 20.71484375 C-1.31523516 13.41391218 -6.80226595 9.45238932 -14.5 6.40234375 C-27.74473303 3.93298674 -38.17122338 6.39500906 -47.1875 16.71484375 Z " fill="#000000" transform="translate(123.1875,11.28515625)"/>
<path d="M0 0 C5.44079782 0.44414676 10.01318954 1.76453324 15 4 C15.495 5.485 15.495 5.485 16 7 C16.78375 7.2475 17.5675 7.495 18.375 7.75 C21 9 21 9 22.875 12.1875 C24.1193377 16.40442221 24.21466521 18.7891606 23 23 C21.3125 24.9375 21.3125 24.9375 19 26 C15.75 26.1875 15.75 26.1875 13 26 C12.731875 26.61875 12.46375 27.2375 12.1875 27.875 C11 30 11 30 8 32 C5.9140625 31.9140625 5.9140625 31.9140625 3.625 31.625 C1.23154991 31.44373095 1.23154991 31.44373095 -1 32 C-2.73394383 33.97295865 -3.75006005 35.86220149 -4.83203125 38.25 C-5.21746094 38.8275 -5.60289063 39.405 -6 40 C-7.32 40 -8.64 40 -10 40 C-9.67 38.35 -9.34 36.7 -9 35 C-10.65 35 -12.3 35 -14 35 C-11.42906526 33.28604351 -9.03576497 32.0477166 -6.25 30.75 C-2.02411487 28.69249908 1.14749173 26.38723205 4.4296875 23.0390625 C6 22 6 22 8.1953125 22.3359375 C8.79085937 22.55507813 9.38640625 22.77421875 10 23 C9.979375 21.906875 9.95875 20.81375 9.9375 19.6875 C10 16 10 16 11 13 C9.51988629 13.30798326 8.04092675 13.621518 6.5625 13.9375 C5.73878906 14.11152344 4.91507813 14.28554688 4.06640625 14.46484375 C2.02338796 14.80752994 2.02338796 14.80752994 1 16 C1.66 16.66 2.32 17.32 3 18 C-4.70624881 25.20962389 -9.72897705 29.27238542 -20.51171875 29.49609375 C-23 29 -23 29 -24.8515625 27.20703125 C-26.54358472 23.9553559 -25.73835015 21.49038255 -25 18 C-24.67 18 -24.34 18 -24 18 C-23.67 19.98 -23.34 21.96 -23 24 C-22.34 24 -21.68 24 -21 24 C-21.66 23.34 -22.32 22.68 -23 22 C-23.28339994 19.07153399 -23.47173611 16.84746736 -23 14 C-21.1875 11.8125 -21.1875 11.8125 -19 10 C-18.525625 9.113125 -18.05125 8.22625 -17.5625 7.3125 C-16 5 -16 5 -13.4375 4.375 C-12.633125 4.25125 -11.82875 4.1275 -11 4 C-10.34 3.01 -9.68 2.02 -9 1 C-7.08984375 0.7421875 -7.08984375 0.7421875 -4.9375 0.875 C-3.638125 0.91625 -2.33875 0.9575 -1 1 C-0.67 0.67 -0.34 0.34 0 0 Z " fill="#3FA949" transform="translate(100,21)"/>
<path d="M0 0 C0.33 0 0.66 0 1 0 C1.66 2.97 2.32 5.94 3 9 C2.01 9 1.02 9 0 9 C-1.125 2.25 -1.125 2.25 0 0 Z " fill="#40A24B" transform="translate(75,39)"/>
</svg>
